<?xml version="1.0" encoding="utf-8"?>
<!-- Generator: Adobe Illustrator 24.3.0, SVG Export Plug-In . SVG Version: 6.00 Build 0)  -->
<svg version="1.1" id="Layer_1" xmlns="http://www.w3.org/2000/svg" xmlns:xlink="http://www.w3.org/1999/xlink" x="0px" y="0px"
	 viewBox="0 0 1500 1500" style="enable-background:new 0 0 1500 1500;" xml:space="preserve">
<style type="text/css">
	.st0{fill:#1E90FF;}
</style>
<g>
	<path class="st0" d="M802.7,764.4c6.3-0.5,12.3-0.6,18.2-1.4c14.7-2,29.3,0.6,44,1.1c17.2,0.6,34.3,2.6,51.5,1.8
		c13.8-0.7,26.7-5,38.3-12.4c19-12.1,36.7-25.7,48.4-45.6c1.8-3.2,3.9-4.8,6.5-1.1c3.4,4.7,5,3.1,7.1-1.2
		c12.8-26.5,26.4-52.5,43.3-76.7c11.8-17,25-32.7,41.3-45.5c19.1-14.9,40.7-23.2,65.1-23.5c13.6-0.2,27.2-0.5,40.2,4.6
		c8.2,3.2,15.3,7.8,20.6,14.9c2.6,3.5,5,5.3,6.5-0.5c1.8-6.7,6-8.4,12.6-8.2c21,0.4,42.1,0.1,63.1,0.1c9.7,0,10.1,0.8,6.2,9.5
		c-25.3,56.8-50.6,113.6-75.8,170.3c-1.4,3.1-2.6,6.3-3.4,9.6c-2.7,9.7,1.9,15,12,13.8c7.9-1,15.5-3.4,22.7-6.7
		c16.5-7.6,31.6-17.8,45.1-29.8c8.1-7.2,11.6-17.7,16.2-27.2c25.2-52,44.8-106.2,63.6-160.7c1.9-5.5,3.6-7.2,9.4-3.9
		c52.1,29.6,104.4,58.8,156.6,88.2c4.1,2.3,8.1,5.1,11.5,8.3c8.6,8.1,11.7,17.7,7.5,29.5c-5.4,15.2-13.1,29.3-20.1,43.7
		c-6.4,13.2-12.9,26.4-16.2,40.9c-3.5,15.6,0.7,20.1,16.2,16.7c22.1-4.8,40.1-17.4,57.4-30.9c12.7-9.9,24.3-21,32.8-34.9
		c1.9-3.1,3.8-3.6,6.2-0.6c5.6,7.1,11.2,14.2,16.9,21.2c2.2,2.7,0.9,5.1-0.4,7.5c-7.3,14-17.7,25.7-29.3,36.2
		c-31.6,28.5-67.7,49.7-107.6,64.4c-19,7-38.5,11.5-58.8,13c-7.5,0.6-14.9-0.2-22.2-1.8c-25.4-5.7-35.3-26.4-32.6-50.3
		c2.7-23.2,13.2-44,22.8-65c10-22,22.8-42.6,32.5-64.9c8.8-20.4,8.7-20.7-11.2-29.5c-5.5-2.5-8.2-1.8-10.6,4.2
		c-12.6,30.6-30.7,57.8-53,82.2c-17.6,19.2-35.2,38.3-55.9,54.2c-11.6,8.9-24.1,16.1-38.9,18c-3.8,0.5-6.6,2.8-9.6,4.7
		c-34.8,22.8-72.1,39.6-113.4,46.3c-6.7,1.1-13.5,1.8-20.2,1.8c-12.9,0.1-22.9-5.1-27.9-17.5c-1.9-4.8-3.7-5.5-8.2-2.4
		c-29.1,20.1-61.7,24-95.4,17c-29.8-6.2-45.7-30.6-42.2-61c0.2-2,0.9-4-0.8-6.5c-5.5,4.3-10.8,8.8-16.4,12.8
		c-37.5,26.9-77.7,48-123.9,55.6c-19.3,3.2-38.7,2.4-58.2,1.5c-14.9-0.7-29.8-0.8-44.8-0.7c-23.5,0.3-47-1.1-70.5,1.1
		c-4.2,0.4-7.1-0.9-7.8-5.4c-0.1-0.4-0.2-0.9-0.3-1.3c-4.7-17.6-4.6-17.5,7.9-30.5c35.4-36.6,73.7-70.1,111.7-103.8
		c25.7-22.8,51.4-45.6,75.6-70c1.7-1.7,4.9-3.3,3.7-5.8c-1.1-2.5-4.5-1.2-6.8-1.2c-13.4,0.2-26.6-2.1-39.8-3.6
		c-7.9-0.9-15.8-1.3-23.7-0.1c-12.3,1.8-22.1,7.9-28.7,18.6c-8.5,13.9-16.5,28-25.3,41.8c-19.7,31-42.2,60-68.1,86
		c-27.9,28.1-58.7,52.4-96.6,66.2c-15.4,5.6-31.4,8.8-47.7,9.3c-13.7,0.4-24.2-4.9-29.6-18.2c-1.4-3.5-2.8-5.4-6.8-2.5
		c-28,20.3-59.6,23.2-92.6,18.8c-4.5-0.6-8.3,0-12.3,2.1c-27.2,14.6-55.7,26.4-86.3,31.4c-60.5,9.9-111.5-7.4-152.3-53.8
		C129,800.8,114,770.9,102.6,739c-8.1-22.6-19-44-28.9-65.8c-1.8-3.9-3.2-4.7-6.7-1.2c-14.9,14.8-28.7,30.6-43.1,45.9
		C12,730.7,0.1,743.3-11.4,756.3c-16.5,18.6-33,37.2-48.9,56.3c-15.8,18.9-31.5,37.8-47.6,56.5c-3.7,4.2-4.1,7-0.1,11.3
		c24.6,26.4,49.7,51.9,83.8,66.5c42.3,18.2,85.3,18.9,128.6,5.6c39.4-12.1,74.9-31.5,105.1-60c2.3-2.2,4.4-2.5,7.3-1.3
		c21.4,8.7,43.6,13.2,66.9,11.8c1.7-0.1,4-0.8,5,1.1c1,2.1-1.3,3.1-2.5,4.3c-32.9,34.8-67.6,68-101.2,102.1
		c-31,31.4-62.7,61.9-94,93c-9.1,9.1-18.2,18.2-27.3,27.3c-5.6,5.5-7.5,5.5-12.9,0.1C-28.2,1053.7-106,975.4-184,897.5
		c-21.3-21.3-41.3-43.8-56.9-69.7c-19.9-33-34.6-68.1-43.5-106c-8.3-35.4-8-70.8-7.1-106.4c0.7-29.1,8-57.1,17.1-84.7
		c7.6-23.1,17.7-45,30.2-65.7c10.3-17,21.9-33,34.9-48.2c31.7-37,71.3-62.8,114.4-83.9c30.1-14.7,61.9-24.3,95.6-25.6
		c25.2-1,50.1,2.6,71.8,16c22.8,14,31.8,36.8,33.4,62.6c1.5,24.5-4.3,47.9-10.7,71.3c-7.4,27.3-18.2,53.4-28.6,79.7
		c-0.9,2.3-2.4,4.9,0.6,6.6c2.6,1.4,4.1-1.1,5.6-2.6c31.9-31.1,64.6-61.3,97.9-90.8c28.2-25,57.1-49.2,86.9-72.4
		c30-23.4,60.5-45.9,92.1-66.9c14.3-9.5,29.1-18.3,43.6-27.5c3.8-2.4,6.5-2.3,8.9,1.8c12.8,21.8,25.7,43.6,38.6,65.4
		c2.7,4.6-0.4,6.6-3.6,8.6c-12.2,7.8-24.6,15.3-36.6,23.2c-29.6,19.6-58.3,40.5-86.2,62.4c-24.7,19.4-49.2,39.1-72.7,59.9
		c-19.5,17.2-39.2,34.1-57.7,52.4c-9.1,9-18.9,17.5-28.5,26.1c-4.2,3.8-5.3,7.8-3.5,13.3c10.6,32.2,19,65.1,27.8,97.8
		c6.4,23.9,16.1,46.6,30.9,66.7c23.5,32,52.2,41.4,90.6,30.9c19.2-5.2,36.7-13.9,54.1-23.2c3.1-1.7,4.5-4.2,5.4-7.4
		c17.1-57.2,44.5-109.2,82.2-155.4c29.9-36.6,68.6-51.8,115.6-44.5c13.2,2,24.7,7.5,33.1,18.1c3.2,4.1,5.6,4.4,7-1
		c1.7-6.6,6-7.9,12.2-7.8c21.7,0.3,43.4,0.1,65.1,0.1c7.7,0,8.2,0.8,5.2,7.6c-25,55.7-49.9,111.4-74.8,167.1
		c-2.4,5.4-5.1,10.7-5.9,16.5c-1.4,9.3,4.7,14.3,13.6,11.1c7.8-2.8,14.4-7.8,20.1-13.5c42.4-42.5,77.3-90.2,100.2-146.1
		c6.9-16.8,15.1-32.9,27.4-46.5c13.8-15.2,31-20.4,50.9-17.6c28.4,4,56.8,8.5,85.2,12.2c24.7,3.3,49.6,3.2,74.4,0.2
		c6.1-0.7,12.1-1.4,18.2-1.9c3.2-0.3,6.2-0.2,8.9,2.2c8.3,7.4,8.6,9.5,1.3,17.7c-23.9,26.6-50.5,50.5-76.9,74.5
		c-25.7,23.4-52.1,46.2-78.1,69.3c-12.7,11.3-25.2,22.7-37.7,34.1C805.9,759.4,803.4,760.8,802.7,764.4z M-210.4,642.3
		c-0.8,18.7,1.9,39.7,5.6,60.6c6,33.3,15.7,65.5,28.3,96.8c0.6,1.6,0.7,3.9,2.9,4.2c1.5,0.2,2-1.6,2.7-2.7
		c13.9-23.8,28.2-47.4,41.6-71.4c21.5-38.4,42.7-77.1,62.7-116.4c15-29.6,29.8-59.4,43.3-89.7c15.6-35.1,30-70.7,38.7-108.4
		c1.1-4.6,2.3-9.2,2.3-14c0-3.5-1.4-5.5-5.1-5.7c-7.9-0.3-15.8-0.4-23.7,0.8c-19.3,2.9-36.9,10.4-54,19.2
		c-24.5,12.5-46.4,28.7-68,45.6c-24.6,19.3-42.6,43.4-55.6,71.5C-204.5,566.7-211.1,602.4-210.4,642.3z M451,786.2
		c0,10.8,6.2,14.9,15.2,10.7c10.2-4.7,15.4-13.8,19.6-23.3c19.6-43.7,39.1-87.5,58.4-131.3c3.2-7.2,7.2-14.2,8.6-22
		c1.3-7.1-1.7-10.9-8.8-11.4c-8.6-0.5-15.6,2.2-20,10c-2.9,5.1-5.7,10.3-8.1,15.7c-20.4,45.6-40.7,91.2-61,136.8
		C452.8,776.4,451.3,781.5,451,786.2z M1086.4,787.3c-0.5,9,5.6,13.4,14.1,10.1c3.2-1.2,5.8-3.4,8.3-5.8c9-8.8,13.5-20.2,18.5-31.3
		c15.6-34.8,31.1-69.7,46.4-104.7c4.9-11.2,10.7-22,14.1-33.7c2.5-8.5-1-12.8-9.4-13.1c-12.4-0.4-18.8,7.2-23.3,17.3
		c-21.3,47.9-42.7,95.7-64,143.5C1088.6,775.3,1087.2,781.2,1086.4,787.3z"/>
</g>
</svg>
