<?xml version="1.0" encoding="utf-8"?>
<!-- Generator: Adobe Illustrator 24.3.0, SVG Export Plug-In . SVG Version: 6.00 Build 0)  -->
<svg version="1.1" id="Layer_1" xmlns="http://www.w3.org/2000/svg" xmlns:xlink="http://www.w3.org/1999/xlink" x="0px" y="0px"
	 viewBox="0 0 1500 1500" style="enable-background:new 0 0 1500 1500;" xml:space="preserve">
<style type="text/css">
	.st0{fill:#1E90FF;}
</style>
<g>
	<path class="st0" d="M1000.6,971.1c-30.6,1.6-58.3-6.1-84.7-18.2c-17.9-8.2-34.1-19.2-48.8-32.6c-21.9-20-39.6-43.1-54-68.9
		c-11.4-20.5-21.2-41.9-28.6-64.3c-6.9-21-16.8-40.6-26.1-60.5c-3.5-7.6-7.2-15-10.6-22.6c-1.6-3.6-3.2-4.2-6.2-1.3
		c-12.3,12.4-24,25.4-35.8,38.3c-7.5,8.2-15.3,16.2-23,24.2c-19.4,20.4-38,41.4-56.5,62.6c-12.2,13.9-24.8,27.4-36.5,41.7
		c-16.7,20.3-34.6,39.6-50.9,60.2c-7.2,9.1-14.5,18.2-22.3,26.9c-3,3.3-3,5.8,0.2,9.3c13,14.5,27.3,27.8,41.1,41.6
		c20.2,20.2,44,34.9,70.2,46.1c22.9,9.7,46.7,15.2,71.6,16.7c23.2,1.4,46-0.5,68.4-5.6c34.7-7.9,67.1-21.8,97.5-40.2
		c20-12.1,39.5-24.8,55.9-41.7c2.2-2.2,4.3-2.7,7.1-1.5c16.9,7.4,34.6,11.8,52.8,14.4c10.7,1.5,21.6,0.3,32.5,0.6
		c2.9,0.1,7.2-1.5,8.4,1c1.3,2.8-3,4.6-5,6.6c-9.9,10.3-19.3,21.1-29.8,30.9c-17.2,16-32.9,33.4-49.7,49.8
		c-15.2,14.9-30.5,29.7-45.5,44.8c-20.5,20.5-40.6,41.3-61.1,61.7c-16.8,16.7-34.3,32.6-50.8,49.5c-14.4,14.8-29.1,29.3-43.6,44
		c-7.3,7.4-10.5,7.3-17.8,0c-19-19-37.8-38.1-57-56.8c-85.6-83.8-169.8-169-254.3-253.8c-17.8-17.9-33.8-37.6-47.7-58.9
		c-7.5-11.6-15.1-23.1-21.6-35.3c-7.4-14-13.9-28.4-20.4-42.8c-7.6-16.8-12.3-34.4-17.9-51.9c-0.5-1.6-1-3.2-1.2-4.8
		c-1.3-10.6-3.9-20.9-7-31.1c-3.2-10.6-2.9-21.8-3.9-32.7c-1.7-19.1-2.6-38.2-2-57.4c0.9-30,2.8-59.7,10.3-89
		c3.2-12.4,6-24.9,9.8-37.1c6.6-21.1,14.9-41.6,24.8-61.4c9.4-18.8,20.3-36.7,31.6-54.3c8.7-13.6,19.2-26,30.4-37.7
		c8.6-9,17.3-17.9,25.2-27.6c6.1-7.6,14.8-12.8,22.6-18.8c24.5-18.5,50.3-34.8,77.4-49.3c18.1-9.7,36.8-18.2,56.1-24.9
		c15.8-5.5,32-10,48.7-12.4c12.7-1.8,25.3-4.1,38.1-4.4c13.6-0.4,27.1,1.7,40.6,4.4c14.3,2.8,28.4,6.4,41.2,13.2
		c16.4,8.8,28.5,22.2,36.2,39.2c10.8,23.8,12.2,48.6,9.3,74.3c-2.4,21.6-8,42.4-13.7,63.2c-8.3,30.4-19.9,59.6-31.8,88.7
		c-1.5,3.7-3,7.4-4.4,11.1c-0.8,2-0.7,4,1.3,5.4c2,1.4,3.8,0.7,5.5-0.7c0.6-0.5,1.2-1.1,1.8-1.7c18.7-18,37.1-36.3,56.1-54
		c18.8-17.5,38.1-34.3,57.2-51.4c11.4-10.3,22.5-20.9,34.1-30.8c7.4-6.4,14.9-12.7,22.4-19.1c16.6-14.1,33.5-27.9,50.7-41.3
		c23.2-18.2,46.2-36.5,70.3-53.6c28.6-20.3,57.1-41,87.1-59.3c9.8-6,19.3-12.4,29.3-18.1c5.8-3.3,6.8-3.1,10.2,2.7
		c7.4,12.6,14.5,25.4,22.3,37.9c8.8,14,16.4,28.6,24.9,42.7c4.8,7.9,4.5,8.6-3.5,13.5c-22.9,14.2-45.9,28.3-68,43.9
		c-21.6,15.3-43.1,30.8-64.2,46.7c-16.9,12.8-33.3,26-49.8,39.2c-23.5,18.8-46.8,37.8-69.4,57.8c-16.6,14.7-32.8,29.7-49.3,44.5
		c-19.6,17.6-38.1,36.2-57.5,53.9c-3.9,3.6-4.3,7.2-2.7,12c7.8,24.5,15.7,48.9,22.5,73.6c4.4,16.2,7.2,32.8,12.1,48.9
		c7.9,25.7,17.4,50.6,31.1,73.9c9.2,15.6,20.5,29.2,34.7,40.3c18,14.1,38.8,19.4,61.4,17.5c22.5-1.9,43.8-8.7,64.1-18.1
		c16.4-7.6,32.7-15.7,48-25.6c5-3.3,6.2-3.2,9.6,2c8.1,12.2,16,24.5,23.9,36.9c9.7,15.2,19.2,30.4,28.8,45.6
		c2.6,4.1,0.6,6.4-2.7,8.5c-18.8,12.1-38.6,22.4-58.8,32c-17.8,8.5-36.4,14.9-55.3,20C1044.5,968,1022.4,972.7,1000.6,971.1z
		 M388.7,662.6c-0.4,19.6,1.1,38.5,3.7,57.3c4.3,30.9,11.1,61.2,20.3,91c6.1,19.6,13,38.9,20.4,57.9c0.5,1.3,0.8,3.1,2.5,3.4
		c1.4,0.2,2-1.1,2.4-2.1c4.6-9.8,11.1-18.6,16.5-27.9c10.2-17.7,20.2-35.6,30.5-53.2c13.5-23.1,26.6-46.5,39.2-70.2
		c8.2-15.4,16.2-31,24.7-46.2c10.2-18.4,19.7-37.1,29.1-55.8c10.7-21.4,21.4-42.9,31.6-64.5c9.1-19.3,17.9-38.7,26.1-58.3
		c14.6-35,29-70.2,37.1-107.4c1.9-8.7,5-17.3,4.8-26.4c-0.1-4-1.6-6-5.6-5.8c-10.6,0.3-21.2-0.4-31.8,1.5
		c-29.7,5.1-56.3,18-82.2,32.4c-14.1,7.8-27.5,16.9-40.5,26.4c-14.5,10.6-29.1,21.1-42.5,33.1c-37.2,33.5-60.8,75.5-74.3,123.3
		C392.2,601,388.1,631.8,388.7,662.6z"/>
</g>
</svg>
